<svg width="24" height="24" fill="none" xmlns="http://www.w3.org/2000/svg" viewBox="0 0 24 24">
    <g clip-path="url(#BR_svg__a)">
        <path d="M12 24c6.627 0 12-5.373 12-12S18.627 0 12 0 0 5.373 0 12s5.373 12 12 12Z"
            fill="#6DA544" />
        <path d="M12 4.696 21.913 12 12 19.305 2.087 12 12 4.696Z" fill="#FFDA44" />
        <path d="M12 16.174a4.174 4.174 0 1 0 0-8.348 4.174 4.174 0 0 0 0 8.348Z" fill="#F0F0F0" />
        <path
            d="M9.913 11.74a7.02 7.02 0 0 0-2.086.315 4.173 4.173 0 0 0 7.59 2.34 7.034 7.034 0 0 0-5.504-2.655Zm6.183 1.06a4.174 4.174 0 0 0-7.932-2.447 8.607 8.607 0 0 1 7.932 2.447Z"
            fill="#0052B4"
        />
    </g>
    <defs>
        <clipPath id="BR_svg__a">
            <path fill="#fff" d="M0 0h24v24H0z" />
        </clipPath>
    </defs>
</svg>